<svg xmlns="http://www.w3.org/2000/svg" viewBox="0 0 800 420"><rect width="800" height="420" fill="#f7fbff"/><path d="M80 330H720M120 60V360" stroke="#b9cce2" stroke-width="3"/><path d="M160 65V360" stroke="#dce3ec" stroke-width="1"/><path d="M240 65V360" stroke="#dce3ec" stroke-width="1"/><path d="M320 65V360" stroke="#dce3ec" stroke-width="1"/><path d="M400 65V360" stroke="#dce3ec" stroke-width="1"/><path d="M480 65V360" stroke="#dce3ec" stroke-width="1"/><path d="M560 65V360" stroke="#dce3ec" stroke-width="1"/><path d="M640 65V360" stroke="#dce3ec" stroke-width="1"/><path d="M720 65V360" stroke="#dce3ec" stroke-width="1"/><path d="M80 90H720" stroke="#dce3ec" stroke-width="1"/><path d="M80 150H720" stroke="#dce3ec" stroke-width="1"/><path d="M80 210H720" stroke="#dce3ec" stroke-width="1"/><path d="M80 270H720" stroke="#dce3ec" stroke-width="1"/><path d="M80 330H720" stroke="#dce3ec" stroke-width="1"/><polygon points="250,90 560,120 480,310 190,280" fill="#e8f8ef" stroke="#163d66" stroke-width="6"/><path d="M250 90L480 310M560 120L190 280" stroke="#163d66" stroke-width="4" stroke-dasharray="12 10"/><text x="80" y="390" font-family="Arial" font-size="28" font-weight="700" fill="#172033">Chapter 8: Basics of Geometry</text></svg>