<svg xmlns="http://www.w3.org/2000/svg" viewBox="0 0 800 420"><rect width="800" height="420" fill="#f7fbff"/><path d="M80 330H720M120 60V360" stroke="#b9cce2" stroke-width="3"/><path d="M160 65V360" stroke="#dce3ec" stroke-width="1"/><path d="M240 65V360" stroke="#dce3ec" stroke-width="1"/><path d="M320 65V360" stroke="#dce3ec" stroke-width="1"/><path d="M400 65V360" stroke="#dce3ec" stroke-width="1"/><path d="M480 65V360" stroke="#dce3ec" stroke-width="1"/><path d="M560 65V360" stroke="#dce3ec" stroke-width="1"/><path d="M640 65V360" stroke="#dce3ec" stroke-width="1"/><path d="M720 65V360" stroke="#dce3ec" stroke-width="1"/><path d="M80 90H720" stroke="#dce3ec" stroke-width="1"/><path d="M80 150H720" stroke="#dce3ec" stroke-width="1"/><path d="M80 210H720" stroke="#dce3ec" stroke-width="1"/><path d="M80 270H720" stroke="#dce3ec" stroke-width="1"/><path d="M80 330H720" stroke="#dce3ec" stroke-width="1"/><path d="M120 310 L250 250 L380 190 L510 130 L660 70" fill="none" stroke="#176f5b" stroke-width="8" stroke-linecap="round"/><circle cx="250" cy="250" r="10" fill="#9dd8c8"/><circle cx="510" cy="130" r="10" fill="#9dd8c8"/><text x="80" y="390" font-family="Arial" font-size="28" font-weight="700" fill="#172033">Chapter 3: Graphing Linear Functions</text></svg>